<?xml version="1.0" encoding="iso-8859-1"?>
<!-- Generator: Adobe Illustrator 19.0.0, SVG Export Plug-In . SVG Version: 6.00 Build 0)  -->
<svg version="1.1" id="Layer_1" xmlns="http://www.w3.org/2000/svg" xmlns:xlink="http://www.w3.org/1999/xlink" x="0px" y="0px"
	 viewBox="0 0 512 512" style="enable-background:new 0 0 512 512;" xml:space="preserve">
<path style="fill:#47A7DD;" d="M245.904,460.876l-19.089-176.321l-3.387-31.22l-89.867,7.667c-3.571,0.302-7.129,0.46-10.648,0.46
	c-6.407,0-12.709-0.499-18.879-1.457l3.466,31.995l18.984,175.349c1.641,15.23,14.507,26.783,29.829,26.783h59.75
	C233.917,494.132,247.821,478.639,245.904,460.876z"/>
<path style="fill:#F2F2F2;" d="M191.327,352.414c1.234,9.348-6.052,17.645-15.492,17.645c-7.838,0-14.455-5.816-15.479-13.588
	l-4.438-33.741c-1.221-9.348,6.052-17.658,15.492-17.658c3.926,0,7.536,1.457,10.306,3.873c2.757,2.429,4.674,5.829,5.173,9.715
	L191.327,352.414z"/>
<path style="fill:#3D98C1;" d="M226.814,284.555l-3.387-31.22l-81.943,6.991v-0.004l-7.923,0.676
	c-3.571,0.302-7.129,0.46-10.648,0.46c-6.407,0-12.709-0.499-18.879-1.457v0.004l0,0l1.465,13.529l20.984,193.811
	c1.641,15.229,14.507,26.783,29.829,26.783h37.416c-15.321,0-28.188-11.553-29.829-26.783l-19.036-175.798l78.562-6.702
	L226.814,284.555z"/>
<polygon style="fill:#47A7DD;" points="512,26.967 512,255.002 420.82,239.129 356.484,143.692 420.82,42.84 "/>
<path style="fill:#3D98C1;" d="M512,255.002l-91.18-15.873V42.84C420.82,42.84,423.314,225.265,512,255.002z"/>
<path style="fill:#F2F2F2;" d="M231.416,26.674l-97.856-8.35c-35.343-3.02-68.244,9.164-92.532,30.919
	C15.925,71.68,0,104.344,0,140.974c0,36.643,15.925,69.294,41.028,91.731c17.356,15.558,39.111,26.205,63.005,29.921
	c6.171,0.958,12.472,1.457,18.879,1.457c3.519,0,7.076-0.158,10.648-0.46l89.867-7.667l197.393-16.831V42.836L276.881,30.553
	L231.416,26.674z"/>
<path style="fill:#E6E6E6;" d="M292.35,230.357l-89.867,7.667c-3.571,0.302-7.129,0.46-10.648,0.46
	c-6.407,0-12.709-0.499-18.879-1.457c-23.895-3.715-45.649-14.363-63.005-29.921c-25.102-22.437-41.028-55.089-41.028-91.731
	c0-36.63,15.925-69.294,41.028-91.731c2.177-1.95,4.426-3.819,6.736-5.611C87.835,19.486,61.4,30.995,41.026,49.242
	C15.925,71.68,0,104.344,0,140.974c0,36.643,15.925,69.294,41.028,91.731c17.356,15.558,39.111,26.205,63.005,29.921
	c6.171,0.958,12.472,1.457,18.879,1.457c3.519,0,7.076-0.158,10.648-0.46l89.867-7.667l197.393-16.831v-19.724L292.35,230.357z"/>
<g>
</g>
<g>
</g>
<g>
</g>
<g>
</g>
<g>
</g>
<g>
</g>
<g>
</g>
<g>
</g>
<g>
</g>
<g>
</g>
<g>
</g>
<g>
</g>
<g>
</g>
<g>
</g>
<g>
</g>
</svg>
